<svg width="441" height="493" viewBox="0 0 441 493" fill="none" xmlns="http://www.w3.org/2000/svg">
<path d="M282.475 413.339L306.39 422.925C310.663 421.158 313.062 419.098 317.357 409.428C316.759 402.875 315.957 398.384 312.936 387.613C304.751 375.659 299.452 373.435 288.876 376.795L274.673 374.141L225.956 370.432L184.972 371.832C168.516 384.118 158.051 389.809 138.283 398.892C144.95 408.38 149.092 414.124 157.265 425.154C205.142 409.359 230.674 386.134 282.475 413.339Z" fill="#312F44" stroke="black"/>
<path d="M257.203 407.808C262.5 406.493 270.52 400.499 268.889 397.9C267.259 395.301 251.447 395.189 249.692 396.499C247.936 397.809 246.939 403.659 247.512 406.016C248.085 408.373 257.203 407.808 257.203 407.808Z" fill="#FFFDF1"/>
<path d="M211.755 402.535C211.997 401.478 224.559 398.961 225.267 399.98C225.975 400.998 229.781 410.174 227.812 410.921C225.843 411.669 214.774 408.791 213.464 407.036C212.154 405.28 211.513 403.593 211.755 402.535Z" fill="#FFFDF1"/>
<path d="M257.203 407.808C262.5 406.493 270.52 400.499 268.889 397.9C267.259 395.301 251.447 395.189 249.692 396.499C247.936 397.809 246.939 403.659 247.512 406.016C248.085 408.373 257.203 407.808 257.203 407.808Z" stroke="black" stroke-width="3"/>
<path d="M211.755 402.535C211.997 401.478 224.559 398.961 225.267 399.98C225.975 400.998 229.781 410.174 227.812 410.921C225.843 411.669 214.774 408.791 213.464 407.036C212.154 405.28 211.513 403.593 211.755 402.535Z" stroke="black" stroke-width="3"/>
<path d="M212.627 245.474C234.88 244.749 267.477 224.65 267.477 224.65L281.63 223.782C281.63 223.782 295.413 218.549 301.733 205.529C308.054 192.509 300.143 178.455 292.976 182.464C285.809 186.472 305.41 174.525 294.067 164.993C282.724 155.461 307.94 138.807 284.61 108.723C261.281 78.6399 212.538 85.8821 212.538 85.8821C212.538 85.8821 163.397 90.3791 155.1 110.908C146.803 131.437 140.595 163.402 140.595 163.402C140.595 163.402 139.515 183.443 147.147 206.936C154.779 230.428 181.681 238.558 181.681 238.558C181.681 238.558 190.375 246.199 212.627 245.474Z" fill="#FEEEDE" stroke="black" stroke-width="3"/>
<path d="M284.68 55.5047C271.988 31.0732 266.242 33.2189 248.807 23.747C231.372 14.2751 293.686 70.751 266.44 47.3039C239.194 23.8567 165.826 45.9193 144.359 74.9887C122.891 104.058 93.7072 89.0703 103.701 95.8963C113.694 102.722 131.301 102.474 131.301 102.474C131.301 102.474 127.882 118.898 126.15 134.681C124.419 150.465 141.07 106.167 141.07 106.167L124.419 150.465C124.419 150.465 123.026 162.901 106.345 174.062C89.6633 185.223 131.379 164.557 124.784 170.923C118.19 177.288 125.452 196.416 128.442 204.291C131.432 212.167 133.328 193.425 133.328 193.425L132.394 214.699L142.644 206.945C142.644 206.945 144.947 211.22 143.678 192.714C142.936 181.891 146.214 141.584 148.217 116.739C149.784 141.996 164.726 155.758 164.726 155.758C161.722 145.078 159.589 136.09 158.64 127.342C161.112 134.202 165.574 141.155 172.445 148.965C178.073 156.711 181.398 159.228 187.466 162.25L181.165 145.655C192.322 158.592 198.906 160.735 210.68 164.057L196.69 127.209C211.992 145.861 221.897 154.841 240.53 169.781C228.462 150.685 224.657 129.874 223.054 123.746C230.792 143.942 236.521 154.562 249.125 170.379C250.392 192.041 250.362 201.544 250.236 218.231C263.202 207.316 269.407 199.147 277.259 178.364L275.551 208.62C285.449 192.257 288.362 177.578 292.848 149.917C293.058 170.85 293.615 182.662 287.084 204.241C293.308 195.486 295.979 190.161 298.251 179.405C302.31 194.046 302.201 200.259 296.814 206.984C286.362 223.314 277.929 225.296 261.782 225.755C263.573 230.24 263.225 232.495 260.204 236.009C266.708 233.595 269.099 231.659 270.59 226.917C277.868 226.714 279.732 228.6 280.235 234.519C284.888 232.727 287.97 232.156 287.488 225.65C289 232.5 291.796 233.047 297.763 232.369C294.755 219.442 307.709 210.249 303.5 214.422C299.291 218.594 305.358 229.486 305.358 229.486C308.835 225.307 310.532 222.646 312.241 216.252C314.05 222.349 317.327 225.469 327.3 230.488C322.75 222.307 321.092 217.978 323.773 211.874C332.606 205.979 335.703 200.299 341.187 190.237L341.256 190.11C343.048 197.025 342.556 201.275 339.856 209.308C350.837 196.089 352.045 186.786 346.41 167.235C351.674 173.733 355.726 174.62 363.311 175.3C313.336 59.3841 316.888 63.3246 284.68 55.5047Z" fill="#35231F"/>
<path d="M284.68 55.5047C271.988 31.0732 266.242 33.2189 248.807 23.747C231.372 14.2751 293.686 70.751 266.44 47.3039C239.194 23.8567 165.826 45.9193 144.359 74.9887C122.891 104.058 93.7072 89.0704 103.701 95.8963C113.694 102.722 131.301 102.474 131.301 102.474C131.301 102.474 127.882 118.898 126.15 134.681C124.419 150.465 141.07 106.167 141.07 106.167L124.419 150.465C124.419 150.465 123.026 162.901 106.345 174.062C89.6633 185.223 131.379 164.557 124.784 170.923C118.19 177.288 125.452 196.416 128.442 204.291C131.432 212.167 133.328 193.425 133.328 193.425L132.393 214.699L142.644 206.945C142.644 206.945 144.947 211.22 143.678 192.714C142.409 174.208 152.893 69.4955 148.665 103.284C144.436 137.072 164.726 155.758 164.726 155.758C156.723 127.307 154.899 110.858 165.187 78.9884C152.972 109.034 151.312 124.942 172.445 148.965C178.073 156.711 181.398 159.228 187.466 162.25L181.165 145.655C192.322 158.592 198.906 160.735 210.68 164.057L196.69 127.209C211.992 145.861 221.897 154.841 240.53 169.781C226.319 147.294 223.565 122.428 222.375 121.963C230.465 143.33 236.155 154.103 249.125 170.379C250.392 192.041 250.362 201.544 250.236 218.231C263.202 207.316 269.407 199.147 277.259 178.364L275.551 208.62C285.449 192.257 288.362 177.578 292.848 149.917C293.058 170.85 293.615 182.662 287.084 204.241C293.308 195.486 295.979 190.161 298.251 179.405C302.31 194.046 302.201 200.259 296.814 206.984C286.362 223.314 277.929 225.296 261.782 225.755C263.573 230.24 263.225 232.495 260.204 236.009C266.708 233.595 269.099 231.659 270.59 226.917C277.868 226.714 279.732 228.6 280.235 234.519C284.888 232.727 287.97 232.156 287.488 225.65C289 232.5 291.796 233.047 297.763 232.369C294.755 219.442 307.709 210.249 303.5 214.422C299.291 218.594 305.358 229.486 305.358 229.486C308.835 225.307 310.532 222.646 312.241 216.252C314.05 222.349 317.327 225.469 327.3 230.488C322.75 222.307 321.092 217.978 323.773 211.874C332.644 205.954 335.729 200.251 341.256 190.11C343.048 197.025 342.556 201.275 339.856 209.308C350.837 196.089 352.045 186.786 346.41 167.235C351.674 173.733 355.726 174.62 363.311 175.3C313.336 59.3841 316.888 63.3246 284.68 55.5047Z" stroke="black" stroke-width="3"/>
<ellipse rx="5.41568" ry="6.92004" transform="matrix(-0.999985 -0.00556626 -0.00556626 0.999985 170.021 175.703)" fill="#35231F"/>
<ellipse rx="5.41568" ry="6.92004" transform="matrix(-0.999985 -0.00556626 -0.00556626 0.999985 220.679 180.285)" fill="#35231F"/>
<path d="M157.092 244.997C152.069 222.445 307.67 235.13 312.632 252.883C317.593 270.637 306.65 267.547 306.324 277.806C315.988 285.498 317.318 291.076 311.008 303.705C321.091 321.742 335.437 344.313 334.732 352.626C334.026 360.94 324.718 386.582 318.867 399.844C296.675 391.41 287.031 373.633 284.578 376.496C282.125 379.358 279.846 381.832 279.846 381.832C279.069 391.9 277.264 394.747 272.973 397.637C262.054 394.591 257.084 394.383 249.264 395.374C247.085 393.331 245.915 391.697 244.459 382.717C237.703 383.722 234.944 383.353 231.178 381.644C228.361 384.307 227.015 385.254 224.894 386.283C228.071 394.305 227.603 396.313 225.79 398.816C218.206 401.929 213.913 403.216 205.905 401.538C202.695 395.628 201.317 392.396 200.352 386.911C179.113 370.984 179.474 365.457 186.568 357.387C182.097 340.953 184.413 323.791 185.201 298.69C178.806 293.225 175.679 289.953 178.26 280.407C171.725 276.805 169.011 274.437 171.446 267.546C171.963 265.736 162.114 267.549 157.092 244.997Z" fill="#8E8588" stroke="black" stroke-width="3"/>
<path d="M246.312 293.511C242.251 300.164 239.283 365.694 238.325 372.494C237.597 377.658 243.249 382.551 246.011 383.415C248.772 384.278 278.101 385.713 279.739 381.551C281.377 377.389 296.518 371.832 294.013 367.442C291.509 363.052 273.977 290.087 271.627 283.899C269.278 277.711 250.374 286.857 246.312 293.511ZM246.312 293.511C233.27 306.398 226.014 310.359 213.182 312.204M306.538 278.368C302.085 277.24 299.514 276.509 291.257 270.331M183.706 294.752C179.776 289.486 208.75 319.675 219.147 341.478L233.397 373.078L227.668 384.264L219.589 389.263L201.167 388.211C201.167 388.211 188.66 378.155 184.837 373.171C181.013 368.186 183.613 353.843 186.006 357.601C188.398 361.359 188.654 359.492 190.277 368.852C191.9 378.213 186.519 353.866 186.519 353.866C181.406 339.666 187.637 300.018 183.706 294.752ZM215.75 242.68C223.545 259.029 226.145 267.464 229.362 281.924C227.236 292.905 225.512 296.118 219.517 285.661L213.734 249.238C212.537 244.93 212.842 243.372 215.75 242.68ZM188.95 250.924L199.604 290.004C200.267 301.279 198.882 302.716 191.155 290.637L182.278 255.388C184.192 250.627 185.558 249.242 188.95 250.924Z" stroke="black" stroke-width="3"/>
<path d="M306.215 423.313C303.665 428.465 300.442 431.492 294.946 431.775C287.534 432.158 281.071 423.205 281.72 418.131C282.368 413.057 289.347 397.535 289.347 397.535C289.347 397.535 298.025 383.941 299.887 382.913C301.749 381.884 302.056 381.465 307.424 383.269C312.793 385.073 310.949 392.551 310.949 392.551C310.949 392.551 308.765 418.161 306.215 423.313Z" fill="#C4C4C4"/>
<path d="M139.097 400.191C143.958 410.662 154.158 414.427 154.666 426.785C149.725 429.419 142.755 433.56 141.164 431.911C139.573 430.263 112.027 411.113 109.891 405.487C107.755 399.862 107.268 396.619 114.224 397.405L139.097 400.191Z" fill="#C4C4C4"/>
<path d="M306.215 423.313C303.665 428.465 300.442 431.492 294.946 431.775C287.534 432.158 281.071 423.205 281.72 418.131C282.368 413.057 289.347 397.535 289.347 397.535C289.347 397.535 298.025 383.941 299.887 382.913C301.749 381.884 302.056 381.465 307.424 383.269C312.793 385.073 310.949 392.551 310.949 392.551C310.949 392.551 308.765 418.161 306.215 423.313Z" stroke="black" stroke-width="3"/>
<path d="M139.097 400.191C143.958 410.662 154.158 414.427 154.666 426.785C149.725 429.419 142.755 433.56 141.164 431.911C139.573 430.263 112.027 411.113 109.891 405.487C107.755 399.862 107.268 396.619 114.224 397.405L139.097 400.191Z" stroke="black" stroke-width="3"/>
<rect x="-1.3516" y="1.63499" width="169.103" height="113.656" rx="8.5" transform="matrix(-0.995528 0.0944632 0.0944632 0.995528 290.535 293.027)" fill="#C4C4C4" stroke="black" stroke-width="3"/>
<path d="M202.958 331.987C202.004 322.694 214.124 321.501 216.872 330.434C219.62 339.368 213.283 342.929 213.283 342.929C210.335 345.336 208.167 343.072 208.167 343.072C208.167 343.072 203.911 341.28 202.958 331.987Z" fill="white" stroke="black"/>
</svg>
